<?xml version="1.0" encoding="utf-8"?><svg viewBox="0 0 32 32" xmlns="http://www.w3.org/2000/svg" xmlns:xlink="http://www.w3.org/1999/xlink"><style>:root>svg{display:none}:root>svg:target{display:block}</style><svg fill="none" viewBox="0 0 32 32" id="social-1" xmlns="http://www.w3.org/2000/svg"><g clip-path="url(#aa)" stroke="#D5C9BE" stroke-width="2" stroke-linecap="round" stroke-linejoin="round"><path d="M21.332 5.332H10.665a5.333 5.333 0 0 0-5.333 5.333v10.667a5.333 5.333 0 0 0 5.333 5.333h10.667a5.333 5.333 0 0 0 5.333-5.333V10.665a5.333 5.333 0 0 0-5.333-5.333Z"/><path d="M16 20a4 4 0 1 0 0-8 4 4 0 0 0 0 8ZM22 10v.001"/></g><defs><clipPath id="aa"><path fill="#fff" d="M0 0h32v32H0z"/></clipPath></defs></svg><svg fill="none" viewBox="0 0 32 32" id="social-2" xmlns="http://www.w3.org/2000/svg"><g clip-path="url(#ba)"><path d="M12.001 15.999a5.334 5.334 0 1 0 5.334 5.333v-16A6.667 6.667 0 0 0 24 11.999" stroke="#D5C9BE" stroke-width="2" stroke-linecap="round" stroke-linejoin="round"/></g><defs><clipPath id="ba"><path fill="#fff" d="M0 0h32v32H0z"/></clipPath></defs></svg><svg fill="none" viewBox="0 0 32 32" id="social-3" xmlns="http://www.w3.org/2000/svg"><g clip-path="url(#ca)" stroke="#D5C9BE" stroke-width="2" stroke-linecap="round" stroke-linejoin="round"><path d="M23.999 5.332h-16a2.667 2.667 0 0 0-2.667 2.667v16a2.667 2.667 0 0 0 2.667 2.666h16A2.667 2.667 0 0 0 26.665 24v-16A2.667 2.667 0 0 0 24 5.332ZM10.668 14.668v6.667M10.668 10.668v.013M16 21.335v-6.667"/><path d="M21.333 21.335v-4a2.667 2.667 0 1 0-5.333 0"/></g><defs><clipPath id="ca"><path fill="#fff" d="M0 0h32v32H0z"/></clipPath></defs></svg><svg fill="none" viewBox="0 0 32 32" id="social-4" xmlns="http://www.w3.org/2000/svg"><g clip-path="url(#da)"><path d="M9.332 13.333v5.334h4V28h5.333v-9.333h4L24 13.333h-5.334v-2.666A1.333 1.333 0 0 1 20 9.333h4V4h-4a6.667 6.667 0 0 0-6.667 6.667v2.666h-4Z" stroke="#D5C9BE" stroke-width="2" stroke-linecap="round" stroke-linejoin="round"/></g><defs><clipPath id="da"><path fill="#fff" d="M0 0h32v32H0z"/></clipPath></defs></svg><svg fill="none" viewBox="0 0 32 32" id="social-5" xmlns="http://www.w3.org/2000/svg"><g clip-path="url(#ea)"><path d="m20 13.332-5.333 5.333 8 8L28 5.332 4 14.665l5.333 2.667 2.667 8 4-5.333" stroke="#D5C9BE" stroke-width="2" stroke-linecap="round" stroke-linejoin="round"/></g><defs><clipPath id="ea"><path fill="#fff" d="M0 0h32v32H0z"/></clipPath></defs></svg><svg fill="none" viewBox="0 0 32 32" id="social-6" xmlns="http://www.w3.org/2000/svg"><g clip-path="url(#fa)" stroke="#D5C9BE" stroke-width="2" stroke-linecap="round" stroke-linejoin="round"><path d="M22.667 6.668H9.333A5.333 5.333 0 0 0 4 12.001v8a5.333 5.333 0 0 0 5.333 5.334h13.334A5.333 5.333 0 0 0 28 20v-8a5.333 5.333 0 0 0-5.333-5.333Z"/><path d="m13.332 12 6.667 4-6.667 4v-8Z"/></g><defs><clipPath id="fa"><path fill="#fff" d="M0 0h32v32H0z"/></clipPath></defs></svg></svg>